<svg width="140" height="25" viewBox="0 0 140 25" xmlns="http://www.w3.org/2000/svg">
    <g fill="#FFF" fill-rule="nonzero">
        <path d="M3.635 9.132a6.3 6.3 0 0 1-1.765-.247C1.3 8.72.845 8.505.5 8.24l.605-1.342c.33.242.722.436 1.177.583.455.147.91.22 1.364.22.506 0 .88-.075 1.122-.225.242-.15.363-.35.363-.6a.573.573 0 0 0-.215-.456 1.626 1.626 0 0 0-.55-.292 10.948 10.948 0 0 0-.907-.242 12.545 12.545 0 0 1-1.441-.418 2.341 2.341 0 0 1-.962-.671C.787 4.49.653 4.079.653 3.566c0-.447.121-.852.363-1.215.242-.363.607-.651 1.095-.864.487-.213 1.083-.319 1.787-.319.491 0 .972.059 1.441.176.47.117.88.286 1.232.506l-.55 1.353c-.711-.403-1.423-.605-2.134-.605-.499 0-.867.08-1.105.242-.239.161-.358.374-.358.638s.138.46.413.589c.274.128.694.254 1.259.379.587.14 1.067.279 1.441.418.374.14.695.36.962.66.268.3.402.708.402 1.221 0 .44-.123.842-.369 1.205-.245.363-.614.65-1.105.863-.491.213-1.089.319-1.793.319zM8.002 3.082h1.716V9H8.002V3.082zm.858-.825c-.315 0-.572-.092-.77-.275a.892.892 0 0 1-.297-.682c0-.271.099-.499.297-.682.198-.183.455-.275.77-.275s.572.088.77.264a.846.846 0 0 1 .297.66.934.934 0 0 1-.297.71c-.198.187-.455.28-.77.28zM13.304 9.088c-.491 0-.972-.06-1.441-.181-.47-.121-.843-.274-1.122-.457l.572-1.232a3.6 3.6 0 0 0 .957.413c.374.106.74.159 1.1.159.726 0 1.089-.18 1.089-.539 0-.169-.099-.29-.297-.363-.198-.073-.502-.136-.913-.187a8.808 8.808 0 0 1-1.199-.253 1.86 1.86 0 0 1-.82-.506c-.23-.242-.346-.587-.346-1.034 0-.374.108-.706.325-.995.216-.29.531-.516.946-.677.414-.161.903-.242 1.468-.242.418 0 .834.046 1.248.138.415.091.758.218 1.029.379l-.572 1.221a3.415 3.415 0 0 0-1.705-.44c-.367 0-.642.051-.825.154-.183.103-.275.235-.275.396 0 .183.099.312.297.385.198.073.513.143.946.209.484.08.88.167 1.188.259.308.091.576.258.803.5.227.242.341.58.341 1.012 0 .367-.11.693-.33.979-.22.286-.54.508-.963.666-.421.157-.922.236-1.501.236zM20.971 8.714a1.764 1.764 0 0 1-.622.28 3.142 3.142 0 0 1-.775.094c-.704 0-1.248-.18-1.634-.539-.385-.36-.577-.887-.577-1.584V4.534h-.913v-1.32h.913V1.773h1.716v1.441h1.474v1.32h-1.474v2.409c0 .25.064.442.192.578.129.135.31.203.545.203.271 0 .502-.073.693-.22l.462 1.21zM27.549 6.063c0 .022-.011.176-.033.462h-4.477c.08.367.271.656.572.869.3.213.675.319 1.122.319.308 0 .581-.046.82-.137.238-.092.46-.237.665-.435l.913.99c-.557.638-1.371.957-2.442.957-.667 0-1.258-.13-1.771-.39a2.863 2.863 0 0 1-1.188-1.084 2.985 2.985 0 0 1-.418-1.573c0-.58.137-1.102.412-1.567a2.89 2.89 0 0 1 1.134-1.09c.48-.26 1.017-.39 1.611-.39a3.3 3.3 0 0 1 1.573.374c.47.25.838.607 1.105 1.073.268.465.402 1.006.402 1.622zM24.48 4.292c-.389 0-.715.11-.979.33-.264.22-.425.52-.484.902h2.915a1.419 1.419 0 0 0-.484-.896 1.447 1.447 0 0 0-.968-.336zM36.272 2.994c.74 0 1.33.218 1.766.655.436.436.654 1.09.654 1.963V9h-1.716V5.876c0-.47-.097-.82-.291-1.05-.195-.231-.472-.347-.831-.347-.403 0-.722.13-.957.39s-.352.648-.352 1.161V9h-1.716V5.876c0-.931-.374-1.397-1.122-1.397-.396 0-.711.13-.946.39s-.352.648-.352 1.161V9h-1.716V3.082h1.639v.682c.22-.25.49-.44.808-.572.32-.132.67-.198 1.051-.198.418 0 .796.083 1.133.248.337.165.609.405.814.72.242-.308.548-.546.919-.715.37-.169.775-.253 1.215-.253zM42.619 2.994c.917 0 1.62.218 2.112.655.491.436.737 1.094.737 1.974V9h-1.606v-.737c-.323.55-.924.825-1.804.825-.455 0-.849-.077-1.182-.231a1.763 1.763 0 0 1-.765-.638 1.66 1.66 0 0 1-.264-.924c0-.55.207-.983.621-1.298.415-.315 1.055-.473 1.92-.473h1.364c0-.374-.114-.662-.341-.863-.227-.202-.568-.303-1.023-.303-.315 0-.625.05-.93.149a2.46 2.46 0 0 0-.775.401l-.616-1.199c.323-.227.71-.403 1.16-.528a5.199 5.199 0 0 1 1.392-.187zm-.132 4.939c.293 0 .554-.068.781-.203.227-.136.389-.336.484-.6v-.605h-1.177c-.704 0-1.056.231-1.056.693 0 .22.086.394.259.523.172.128.408.192.709.192zM56.16.838V9h-1.639v-.682c-.425.513-1.041.77-1.848.77a3.073 3.073 0 0 1-1.513-.374A2.678 2.678 0 0 1 50.1 7.647c-.257-.462-.385-.997-.385-1.606 0-.609.128-1.144.385-1.606.257-.462.61-.818 1.062-1.067.45-.25.955-.374 1.512-.374.755 0 1.346.238 1.771.715V.838h1.716zM52.97 7.68c.433 0 .792-.148 1.078-.445.286-.297.429-.695.429-1.194s-.143-.896-.429-1.193a1.434 1.434 0 0 0-1.078-.446c-.44 0-.803.149-1.089.446-.286.297-.429.694-.429 1.193 0 .499.143.897.429 1.194.286.297.649.445 1.089.445zM63.541 6.063c0 .022-.011.176-.033.462h-4.477c.08.367.271.656.572.869.3.213.675.319 1.122.319.308 0 .581-.046.82-.137.238-.092.46-.237.665-.435l.913.99c-.557.638-1.371.957-2.442.957-.667 0-1.258-.13-1.771-.39a2.863 2.863 0 0 1-1.188-1.084 2.985 2.985 0 0 1-.418-1.573c0-.58.137-1.102.413-1.567a2.89 2.89 0 0 1 1.133-1.09c.48-.26 1.017-.39 1.611-.39a3.3 3.3 0 0 1 1.573.374c.47.25.838.607 1.105 1.073.268.465.402 1.006.402 1.622zm-3.069-1.771c-.389 0-.715.11-.979.33-.264.22-.425.52-.484.902h2.915a1.419 1.419 0 0 0-.484-.896 1.447 1.447 0 0 0-.968-.336zM69.789 9.088c-.491 0-.972-.06-1.441-.181-.47-.121-.843-.274-1.122-.457l.572-1.232a3.6 3.6 0 0 0 .957.413c.374.106.74.159 1.1.159.726 0 1.089-.18 1.089-.539 0-.169-.099-.29-.297-.363-.198-.073-.502-.136-.913-.187a8.808 8.808 0 0 1-1.199-.253 1.86 1.86 0 0 1-.82-.506c-.23-.242-.346-.587-.346-1.034 0-.374.108-.706.325-.995.216-.29.531-.516.945-.677.415-.161.904-.242 1.469-.242.418 0 .834.046 1.248.138.415.091.758.218 1.029.379l-.572 1.221a3.415 3.415 0 0 0-1.705-.44c-.367 0-.642.051-.825.154-.183.103-.275.235-.275.396 0 .183.099.312.297.385.198.073.513.143.946.209.484.08.88.167 1.188.259.308.091.576.258.803.5.227.242.341.58.341 1.012 0 .367-.11.693-.33.979-.22.286-.54.508-.963.666-.421.157-.922.236-1.501.236zM79.436 6.063c0 .022-.011.176-.033.462h-4.477c.08.367.271.656.572.869.3.213.675.319 1.122.319.308 0 .581-.046.82-.137.238-.092.46-.237.665-.435l.913.99c-.557.638-1.371.957-2.442.957-.667 0-1.258-.13-1.771-.39a2.863 2.863 0 0 1-1.188-1.084 2.985 2.985 0 0 1-.418-1.573c0-.58.138-1.102.413-1.567a2.89 2.89 0 0 1 1.133-1.09c.48-.26 1.017-.39 1.611-.39a3.3 3.3 0 0 1 1.573.374c.47.25.838.607 1.105 1.073.268.465.402 1.006.402 1.622zm-3.069-1.771c-.389 0-.715.11-.979.33-.264.22-.425.52-.484.902h2.915a1.419 1.419 0 0 0-.484-.896 1.447 1.447 0 0 0-.968-.336zM86.685 3.082V8.01c0 1.085-.282 1.892-.847 2.42s-1.39.792-2.475.792a6.19 6.19 0 0 1-1.628-.209c-.513-.14-.939-.341-1.276-.605l.682-1.232c.25.205.565.369.946.49.381.12.763.181 1.144.181.594 0 1.032-.134 1.315-.401.282-.268.423-.673.423-1.216v-.253c-.447.491-1.07.737-1.87.737a3.14 3.14 0 0 1-1.49-.357 2.725 2.725 0 0 1-1.073-1.007c-.264-.433-.396-.931-.396-1.496s.132-1.063.396-1.496a2.725 2.725 0 0 1 1.073-1.006 3.14 3.14 0 0 1 1.49-.358c.858 0 1.51.282 1.958.847v-.759h1.628zM83.44 7.306c.455 0 .827-.134 1.117-.401.29-.268.434-.618.434-1.051 0-.433-.145-.783-.434-1.05-.29-.268-.662-.402-1.117-.402-.455 0-.829.134-1.122.402-.293.267-.44.617-.44 1.05 0 .433.147.783.44 1.05.293.268.667.402 1.122.402zM94.242 3.082V9h-1.628v-.704a2.276 2.276 0 0 1-.814.589 2.56 2.56 0 0 1-1.023.203c-.777 0-1.393-.224-1.848-.671-.455-.447-.682-1.111-.682-1.991V3.082h1.716v3.091c0 .953.4 1.43 1.199 1.43.41 0 .74-.134.99-.401.25-.268.374-.666.374-1.194V3.082h1.716zM95.837 3.082h1.716V9h-1.716V3.082zm.858-.825c-.315 0-.572-.092-.77-.275a.892.892 0 0 1-.297-.682c0-.271.099-.499.297-.682.198-.183.455-.275.77-.275s.572.088.77.264a.846.846 0 0 1 .297.66.934.934 0 0 1-.297.71c-.198.187-.455.28-.77.28zM106.727 2.994c.74 0 1.33.218 1.766.655.436.436.654 1.09.654 1.963V9h-1.716V5.876c0-.47-.097-.82-.291-1.05-.195-.231-.472-.347-.831-.347-.403 0-.722.13-.957.39S105 5.518 105 6.03V9h-1.716V5.876c0-.931-.374-1.397-1.122-1.397-.396 0-.711.13-.946.39s-.352.648-.352 1.161V9h-1.716V3.082h1.639v.682c.22-.25.49-.44.808-.572.32-.132.67-.198 1.051-.198.418 0 .796.083 1.133.248.337.165.609.405.814.72.242-.308.548-.546.918-.715.37-.169.776-.253 1.216-.253zM110.687 3.082h1.716V9h-1.716V3.082zm.858-.825c-.315 0-.572-.092-.77-.275a.892.892 0 0 1-.297-.682c0-.271.099-.499.297-.682.198-.183.455-.275.77-.275s.572.088.77.264a.846.846 0 0 1 .297.66.934.934 0 0 1-.297.71c-.198.187-.455.28-.77.28zM119.795 6.063c0 .022-.011.176-.033.462h-4.477c.08.367.271.656.572.869.3.213.675.319 1.122.319.308 0 .581-.046.82-.137.238-.092.46-.237.665-.435l.913.99c-.557.638-1.371.957-2.442.957-.667 0-1.258-.13-1.771-.39a2.863 2.863 0 0 1-1.188-1.084 2.985 2.985 0 0 1-.418-1.573c0-.58.137-1.102.412-1.567a2.89 2.89 0 0 1 1.133-1.09c.48-.26 1.018-.39 1.612-.39a3.3 3.3 0 0 1 1.573.374c.47.25.838.607 1.106 1.073.267.465.401 1.006.401 1.622zm-3.069-1.771c-.389 0-.715.11-.979.33-.264.22-.425.52-.484.902h2.915a1.419 1.419 0 0 0-.484-.896 1.447 1.447 0 0 0-.968-.336zM124.536 2.994c.733 0 1.326.22 1.776.66.451.44.677 1.093.677 1.958V9h-1.716V5.876c0-.47-.103-.82-.308-1.05-.205-.231-.502-.347-.891-.347-.433 0-.777.134-1.034.402-.257.267-.385.665-.385 1.193V9h-1.716V3.082h1.639v.693c.227-.25.51-.442.847-.577a2.951 2.951 0 0 1 1.111-.204zM132.357 8.714a1.764 1.764 0 0 1-.621.28 3.142 3.142 0 0 1-.776.094c-.704 0-1.249-.18-1.633-.539-.386-.36-.578-.887-.578-1.584V4.534h-.913v-1.32h.913V1.773h1.716v1.441h1.474v1.32h-1.474v2.409c0 .25.064.442.192.578.129.135.31.203.545.203.271 0 .502-.073.693-.22l.462 1.21zM135.954 9.088c-.623 0-1.183-.13-1.678-.39a2.903 2.903 0 0 1-1.16-1.084 2.985 2.985 0 0 1-.418-1.573c0-.587.14-1.111.418-1.573a2.903 2.903 0 0 1 1.16-1.083c.495-.26 1.055-.391 1.678-.391s1.18.13 1.672.39c.491.26.876.622 1.155 1.084.279.462.418.986.418 1.573s-.14 1.111-.418 1.573a2.912 2.912 0 0 1-1.155 1.084c-.491.26-1.049.39-1.672.39zm0-1.408c.44 0 .801-.148 1.083-.445.283-.297.424-.695.424-1.194s-.141-.896-.424-1.193c-.282-.297-.643-.446-1.083-.446-.44 0-.803.149-1.089.446-.286.297-.429.694-.429 1.193 0 .499.143.897.429 1.194.286.297.649.445 1.089.445zM3.371 17.994c.917 0 1.62.218 2.112.655.491.436.737 1.094.737 1.974V24H4.614v-.737c-.323.55-.924.825-1.804.825-.455 0-.849-.077-1.183-.231a1.763 1.763 0 0 1-.764-.638 1.66 1.66 0 0 1-.264-.924c0-.55.207-.983.621-1.298.415-.315 1.055-.473 1.92-.473h1.364c0-.374-.114-.662-.341-.863-.227-.202-.568-.303-1.023-.303-.315 0-.625.05-.93.149a2.46 2.46 0 0 0-.775.401l-.616-1.199c.323-.227.71-.403 1.16-.528a5.199 5.199 0 0 1 1.392-.187zm-.132 4.939c.293 0 .554-.068.781-.203.227-.136.389-.336.484-.6v-.605H3.327c-.704 0-1.056.231-1.056.693 0 .22.086.394.259.523.172.128.408.192.709.192zM13.744 24.088c-.63 0-1.197-.13-1.7-.39a2.924 2.924 0 0 1-1.177-1.084 2.956 2.956 0 0 1-.423-1.573c0-.587.141-1.111.423-1.573a2.924 2.924 0 0 1 1.177-1.083c.503-.26 1.07-.391 1.7-.391.623 0 1.168.13 1.633.39.466.26.805.633 1.018 1.117l-1.331.715c-.308-.543-.752-.814-1.331-.814-.447 0-.818.147-1.111.44-.293.293-.44.693-.44 1.199 0 .506.147.906.44 1.199.293.293.664.44 1.111.44.587 0 1.03-.271 1.331-.814l1.331.726c-.213.47-.552.836-1.018 1.1-.465.264-1.01.396-1.633.396zM19.772 17.994c.917 0 1.62.218 2.112.655.491.436.737 1.094.737 1.974V24h-1.606v-.737c-.323.55-.924.825-1.804.825-.455 0-.849-.077-1.182-.231a1.763 1.763 0 0 1-.765-.638 1.66 1.66 0 0 1-.264-.924c0-.55.207-.983.622-1.298.414-.315 1.054-.473 1.919-.473h1.364c0-.374-.114-.662-.341-.863-.227-.202-.568-.303-1.023-.303-.315 0-.625.05-.93.149a2.46 2.46 0 0 0-.775.401l-.616-1.199c.323-.227.71-.403 1.16-.528a5.199 5.199 0 0 1 1.392-.187zm-.132 4.939c.293 0 .554-.068.781-.203.227-.136.389-.336.484-.6v-.605h-1.177c-.704 0-1.056.231-1.056.693 0 .22.086.394.258.523.173.128.41.192.71.192zM26.163 24.088c-.491 0-.972-.06-1.441-.181-.47-.121-.843-.274-1.122-.457l.572-1.232a3.6 3.6 0 0 0 .957.413c.374.106.74.159 1.1.159.726 0 1.089-.18 1.089-.539 0-.169-.099-.29-.297-.363-.198-.073-.502-.136-.913-.187a8.808 8.808 0 0 1-1.199-.253 1.86 1.86 0 0 1-.82-.506c-.23-.242-.346-.587-.346-1.034 0-.374.108-.706.325-.995.216-.29.531-.516.945-.677.415-.161.904-.242 1.469-.242.418 0 .834.046 1.248.138.415.091.758.218 1.029.379l-.572 1.221a3.415 3.415 0 0 0-1.705-.44c-.367 0-.642.051-.825.154-.183.103-.275.235-.275.396 0 .183.099.312.297.385.198.073.513.143.946.209.484.08.88.167 1.188.259.308.091.576.258.803.5.227.242.341.58.341 1.012 0 .367-.11.693-.33.979-.22.286-.54.508-.962.666-.422.157-.923.236-1.502.236zM32.829 24.088c-.623 0-1.183-.13-1.678-.39a2.903 2.903 0 0 1-1.16-1.084 2.985 2.985 0 0 1-.418-1.573c0-.587.14-1.111.418-1.573a2.903 2.903 0 0 1 1.16-1.083c.495-.26 1.055-.391 1.678-.391s1.18.13 1.672.39c.491.26.876.622 1.155 1.084.279.462.418.986.418 1.573s-.14 1.111-.418 1.573a2.912 2.912 0 0 1-1.155 1.084c-.491.26-1.049.39-1.672.39zm0-1.408c.44 0 .801-.148 1.084-.445.282-.297.423-.695.423-1.194s-.141-.896-.423-1.193c-.283-.297-.644-.446-1.084-.446-.44 0-.803.149-1.089.446-.286.297-.429.694-.429 1.193 0 .499.143.897.429 1.194.286.297.649.445 1.089.445zM39.209 24.088c-.491 0-.972-.06-1.441-.181-.47-.121-.843-.274-1.122-.457l.572-1.232a3.6 3.6 0 0 0 .957.413c.374.106.74.159 1.1.159.726 0 1.089-.18 1.089-.539 0-.169-.099-.29-.297-.363-.198-.073-.502-.136-.913-.187a8.808 8.808 0 0 1-1.199-.253 1.86 1.86 0 0 1-.82-.506c-.23-.242-.346-.587-.346-1.034 0-.374.108-.706.325-.995.216-.29.531-.516.946-.677.414-.161.903-.242 1.468-.242.418 0 .834.046 1.248.138.415.091.758.218 1.029.379l-.572 1.221a3.415 3.415 0 0 0-1.705-.44c-.367 0-.642.051-.825.154-.183.103-.275.235-.275.396 0 .183.099.312.297.385.198.073.513.143.946.209.484.08.88.167 1.188.259.308.091.576.258.803.5.227.242.341.58.341 1.012 0 .367-.11.693-.33.979-.22.286-.54.508-.962.666-.422.157-.923.236-1.502.236zM49.626 16.3c.682 0 1.274.114 1.777.341.502.227.889.55 1.16.968.271.418.407.913.407 1.485 0 .565-.136 1.058-.407 1.48-.271.421-.658.744-1.16.968-.503.223-1.095.335-1.777.335h-1.551V24h-1.782v-7.7h3.333zm-.099 4.125c.535 0 .942-.115 1.221-.346.279-.231.418-.56.418-.985 0-.433-.14-.764-.418-.995-.279-.231-.686-.347-1.221-.347h-1.452v2.673h1.452zM59.548 20.029h1.628v3.124a4.651 4.651 0 0 1-1.452.726 5.637 5.637 0 0 1-1.661.253c-.8 0-1.518-.17-2.156-.511a3.808 3.808 0 0 1-1.501-1.42c-.364-.604-.545-1.288-.545-2.051 0-.763.181-1.446.545-2.051a3.79 3.79 0 0 1 1.512-1.42c.645-.34 1.371-.511 2.178-.511.675 0 1.287.114 1.837.341a3.64 3.64 0 0 1 1.386.99l-1.144 1.056c-.55-.58-1.214-.869-1.991-.869-.491 0-.928.103-1.309.308a2.21 2.21 0 0 0-.891.869 2.558 2.558 0 0 0-.319 1.287c0 .477.106.902.319 1.276.213.374.508.666.886.875.377.209.808.313 1.292.313.513 0 .975-.11 1.386-.33v-2.255zM67.732 24l-1.485-2.145h-1.639V24h-1.782v-7.7h3.333c.682 0 1.274.114 1.776.341.503.227.89.55 1.161.968.271.418.407.913.407 1.485 0 .572-.138 1.065-.412 1.48-.275.414-.666.731-1.172.951L69.646 24h-1.914zm-.033-4.906c0-.433-.14-.764-.418-.995-.279-.231-.686-.347-1.221-.347h-1.452v2.684h1.452c.535 0 .942-.117 1.221-.352.279-.235.418-.565.418-.99z"/>
    </g>
</svg>
