<svg width="22" height="20" viewBox="0 0 22 20" xmlns="http://www.w3.org/2000/svg">
    <g fill="#555770" fill-rule="nonzero">
        <path d="M8.258 11.371h-4.47a.75.75 0 0 1-.758-.757c0-.417.334-.758.758-.758h3.576a7.624 7.624 0 0 1-.5-1.432H3.788a.755.755 0 0 1-.758-.757c0-.417.334-.758.758-.758h2.856c-.008-.129-.008-.25-.008-.379 0-.901.152-1.765.425-2.575H2.727A2.73 2.73 0 0 0 0 6.682v7.863a2.72 2.72 0 0 0 2.44 2.705v1.598A1.147 1.147 0 0 0 3.59 20c.258 0 .508-.083.713-.25l1.705-1.34a5.296 5.296 0 0 1 3.28-1.145h5.242c1.5 0 2.728-1.22 2.728-2.72v-.393a8.036 8.036 0 0 1-9-2.78zm.37 2.955h-4.84a.755.755 0 0 1-.758-.758c0-.416.334-.757.758-.757h4.84a.76.76 0 0 1 .758.757.76.76 0 0 1-.757.758z"/>
        <path d="M14.674 0c3.599 0 6.53 2.932 6.53 6.53a6.536 6.536 0 0 1-6.53 6.53 6.531 6.531 0 0 1-6.53-6.53A6.536 6.536 0 0 1 14.674 0zm1.296 4.356c-.099 0-.185.036-.257.109l-1.035 1.034-1.035-1.034a.352.352 0 0 0-.257-.109.358.358 0 0 0-.263.109l-.514.514a.358.358 0 0 0-.109.263c0 .1.036.185.109.257l1.034 1.035L12.61 7.57a.352.352 0 0 0-.109.257c0 .103.036.19.109.263l.514.515c.073.072.16.108.263.108.1 0 .185-.036.257-.108l1.035-1.035 1.035 1.035a.352.352 0 0 0 .257.108c.103 0 .19-.036.263-.108l.515-.515a.358.358 0 0 0 .108-.263c0-.099-.036-.185-.108-.257l-1.035-1.035L16.748 5.5a.351.351 0 0 0 .108-.257.358.358 0 0 0-.108-.263l-.515-.514a.358.358 0 0 0-.263-.109z"/>
    </g>
</svg>
