<svg width="30" height="30" viewBox="0 0 30 30" xmlns="http://www.w3.org/2000/svg">
    <path d="M15 0c8.284 0 15 6.716 15 15 0 8.284-6.716 15-15 15-8.284 0-15-6.716-15-15C0 6.716 6.716 0 15 0zm1.123 1.38-.883 1.002a.318.318 0 0 1-.477 0L13.88 1.38a.318.318 0 0 0-.515.052l-.663 1.16a.319.319 0 0 1-.468.096l-1.066-.805a.318.318 0 0 0-.494.155l-.416 1.27a.318.318 0 0 1-.439.188l-1.206-.573a.318.318 0 0 0-.453.251l-.152 1.327a.319.319 0 0 1-.392.273L6.32 4.456a.318.318 0 0 0-.392.337l.118 1.33a.318.318 0 0 1-.329.346l-1.335-.05a.318.318 0 0 0-.317.408l.384 1.28a.318.318 0 0 1-.252.405l-1.318.219a.318.318 0 0 0-.228.465l.633 1.176a.318.318 0 0 1-.166.447l-1.246.48a.318.318 0 0 0-.13.5l.857 1.025a.318.318 0 0 1-.072.472l-1.125.72a.318.318 0 0 0-.026.517l1.045.831c.15.12.162.344.024.477l-.956.933a.318.318 0 0 0 .079.511l1.191.603c.171.087.227.304.12.462l-.75 1.106a.318.318 0 0 0 .18.486l1.29.35c.184.051.283.252.21.43l-.512 1.233a.318.318 0 0 0 .274.44l1.333.084c.191.012.328.19.292.377l-.252 1.312a.318.318 0 0 0 .356.375l1.323-.185c.19-.027.36.119.362.31l.017 1.336c.003.218.22.369.425.295l1.258-.447a.318.318 0 0 1 .417.231l.286 1.305a.318.318 0 0 0 .475.204l1.143-.692a.319.319 0 0 1 .455.143l.542 1.22c.089.2.347.253.507.105l.98-.908a.318.318 0 0 1 .475.048l.777 1.087c.127.177.39.177.517 0l.777-1.087a.318.318 0 0 1 .475-.048l.98.908c.16.148.418.095.507-.105l.542-1.22a.318.318 0 0 1 .456-.143l1.142.692a.318.318 0 0 0 .476-.204l.285-1.305a.318.318 0 0 1 .417-.231l1.258.447a.318.318 0 0 0 .425-.295l.017-1.336a.318.318 0 0 1 .363-.31l1.322.185c.216.03.398-.16.357-.375l-.253-1.312a.318.318 0 0 1 .293-.377l1.333-.085a.318.318 0 0 0 .273-.439l-.511-1.233a.318.318 0 0 1 .21-.43l1.289-.35a.318.318 0 0 0 .18-.486l-.75-1.106a.318.318 0 0 1 .12-.462l1.192-.603a.318.318 0 0 0 .078-.511l-.956-.933a.316.316 0 0 1 .027-.477l1.045-.83a.318.318 0 0 0-.026-.517l-1.125-.721a.318.318 0 0 1-.072-.472l.857-1.024a.318.318 0 0 0-.13-.501l-1.246-.48a.318.318 0 0 1-.166-.447l.633-1.176a.318.318 0 0 0-.227-.465l-1.318-.219a.318.318 0 0 1-.253-.405l.384-1.28a.318.318 0 0 0-.317-.409l-1.335.051a.318.318 0 0 1-.329-.346l.119-1.33a.318.318 0 0 0-.393-.337l-1.297.318a.318.318 0 0 1-.392-.273l-.152-1.327a.318.318 0 0 0-.453-.25l-1.206.572a.319.319 0 0 1-.439-.188l-.416-1.27a.318.318 0 0 0-.494-.155l-1.066.805a.318.318 0 0 1-.468-.096l-.662-1.16a.318.318 0 0 0-.515-.052zM15 3.75c6.213 0 11.25 5.037 11.25 11.25S21.213 26.25 15 26.25 3.75 21.213 3.75 15 8.787 3.75 15 3.75zm-.712 5.05H11.12V20h8.512v-2.512h-5.344V8.8z" fill="#DB473C" fill-rule="nonzero"/>
</svg>
