<svg xmlns="http://www.w3.org/2000/svg" xmlns:xlink="http://www.w3.org/1999/xlink" width="18px" height="18px" viewBox="0 0 18 18" version="1.1">
<g id="surface1">
<path style=" stroke:none;fill-rule:nonzero;fill:rgb(85.882353%,27.843137%,23.529412%);fill-opacity:1;" d="M 15.363281 2.636719 C 13.679688 0.941406 11.386719 -0.0078125 9 0 C 6.597656 0 4.335938 0.9375 2.636719 2.636719 C 0.941406 4.320312 -0.0078125 6.613281 0 9 C 0 11.402344 0.9375 13.664062 2.636719 15.363281 C 4.320312 17.058594 6.613281 18.007812 9 18 C 11.402344 18 13.664062 17.0625 15.363281 15.363281 C 17.058594 13.679688 18.007812 11.386719 18 9 C 18 6.597656 17.0625 4.335938 15.363281 2.636719 Z M 9 2.460938 C 10.066406 2.460938 10.933594 3.328125 10.933594 4.394531 C 10.933594 5.460938 10.066406 6.328125 9 6.328125 C 7.933594 6.328125 7.066406 5.460938 7.066406 4.394531 C 7.066406 3.328125 7.933594 2.460938 9 2.460938 Z M 11.460938 14.765625 L 6.539062 14.765625 L 6.539062 13.710938 L 7.59375 13.710938 L 7.59375 8.4375 L 6.539062 8.4375 L 6.539062 7.382812 L 10.40625 7.382812 L 10.40625 13.710938 L 11.460938 13.710938 Z M 11.460938 14.765625 "/>
</g>
</svg>
