<?xml version="1.0" encoding="UTF-8"?>
<svg xmlns="http://www.w3.org/2000/svg" xmlns:xlink="http://www.w3.org/1999/xlink" width="18px" height="18px" viewBox="0 0 18 18" version="1.1">
<g id="surface1">
<path style=" stroke:none;fill-rule:nonzero;fill:rgb(85.882353%,27.843137%,23.529412%);fill-opacity:1;" d="M 9 0 C 13.96875 0 18 4.03125 18 9 C 18 13.96875 13.96875 18 9 18 C 4.03125 18 0 13.96875 0 9 C 0 4.03125 4.03125 0 9 0 Z M 9.671875 0.828125 L 9.144531 1.429688 C 9.109375 1.46875 9.054688 1.492188 9 1.492188 C 8.945312 1.492188 8.894531 1.46875 8.859375 1.429688 L 8.328125 0.828125 C 8.289062 0.78125 8.226562 0.757812 8.164062 0.765625 C 8.105469 0.769531 8.050781 0.804688 8.019531 0.859375 L 7.621094 1.554688 C 7.59375 1.601562 7.546875 1.636719 7.492188 1.648438 C 7.441406 1.660156 7.382812 1.644531 7.339844 1.613281 L 6.699219 1.128906 C 6.652344 1.09375 6.585938 1.082031 6.527344 1.101562 C 6.46875 1.117188 6.421875 1.164062 6.40625 1.222656 L 6.15625 1.984375 C 6.136719 2.035156 6.097656 2.078125 6.046875 2.101562 C 6 2.121094 5.941406 2.121094 5.890625 2.097656 L 5.167969 1.753906 C 5.113281 1.726562 5.046875 1.730469 4.992188 1.757812 C 4.9375 1.789062 4.902344 1.84375 4.894531 1.90625 L 4.804688 2.699219 C 4.796875 2.753906 4.769531 2.804688 4.722656 2.835938 C 4.679688 2.867188 4.621094 2.878906 4.570312 2.863281 L 3.792969 2.671875 C 3.730469 2.660156 3.667969 2.675781 3.621094 2.714844 C 3.574219 2.753906 3.550781 2.816406 3.558594 2.875 L 3.628906 3.671875 C 3.632812 3.726562 3.613281 3.78125 3.574219 3.820312 C 3.539062 3.863281 3.484375 3.882812 3.429688 3.882812 L 2.628906 3.851562 C 2.566406 3.847656 2.507812 3.875 2.472656 3.925781 C 2.433594 3.972656 2.421875 4.039062 2.4375 4.097656 L 2.667969 4.863281 C 2.683594 4.917969 2.675781 4.972656 2.648438 5.019531 C 2.621094 5.066406 2.570312 5.097656 2.519531 5.105469 L 1.726562 5.238281 C 1.667969 5.25 1.613281 5.289062 1.585938 5.34375 C 1.558594 5.398438 1.5625 5.464844 1.589844 5.519531 L 1.96875 6.222656 C 1.996094 6.269531 2 6.328125 1.980469 6.378906 C 1.960938 6.429688 1.921875 6.472656 1.871094 6.492188 L 1.125 6.78125 C 1.066406 6.800781 1.023438 6.851562 1.007812 6.910156 C 0.992188 6.96875 1.007812 7.03125 1.046875 7.078125 L 1.558594 7.695312 C 1.59375 7.738281 1.609375 7.792969 1.601562 7.847656 C 1.59375 7.898438 1.5625 7.949219 1.515625 7.976562 L 0.839844 8.410156 C 0.789062 8.441406 0.757812 8.5 0.753906 8.5625 C 0.75 8.621094 0.777344 8.679688 0.824219 8.71875 L 1.453125 9.21875 C 1.542969 9.289062 1.550781 9.425781 1.46875 9.503906 L 0.894531 10.0625 C 0.847656 10.109375 0.828125 10.167969 0.839844 10.230469 C 0.847656 10.289062 0.886719 10.34375 0.941406 10.371094 L 1.65625 10.734375 C 1.757812 10.785156 1.792969 10.914062 1.726562 11.011719 L 1.277344 11.671875 C 1.242188 11.726562 1.234375 11.789062 1.257812 11.847656 C 1.277344 11.90625 1.324219 11.949219 1.386719 11.964844 L 2.160156 12.175781 C 2.269531 12.207031 2.328125 12.328125 2.285156 12.433594 L 1.976562 13.171875 C 1.953125 13.230469 1.960938 13.296875 1.992188 13.347656 C 2.023438 13.398438 2.082031 13.433594 2.144531 13.4375 L 2.941406 13.488281 C 3.058594 13.496094 3.140625 13.601562 3.117188 13.714844 L 2.964844 14.5 C 2.953125 14.5625 2.972656 14.625 3.015625 14.667969 C 3.058594 14.710938 3.117188 14.734375 3.179688 14.726562 L 3.972656 14.613281 C 4.085938 14.597656 4.191406 14.6875 4.191406 14.800781 L 4.203125 15.601562 C 4.203125 15.734375 4.332031 15.824219 4.457031 15.78125 L 5.210938 15.511719 C 5.261719 15.492188 5.320312 15.496094 5.367188 15.523438 C 5.414062 15.550781 5.449219 15.597656 5.460938 15.648438 L 5.632812 16.433594 C 5.644531 16.492188 5.6875 16.542969 5.742188 16.566406 C 5.800781 16.589844 5.863281 16.585938 5.917969 16.554688 L 6.605469 16.140625 C 6.652344 16.113281 6.707031 16.105469 6.757812 16.121094 C 6.8125 16.136719 6.855469 16.175781 6.875 16.226562 L 7.203125 16.957031 C 7.253906 17.078125 7.410156 17.109375 7.507812 17.019531 L 8.09375 16.476562 C 8.132812 16.4375 8.1875 16.421875 8.242188 16.425781 C 8.296875 16.429688 8.347656 16.460938 8.378906 16.503906 L 8.84375 17.15625 C 8.921875 17.261719 9.078125 17.261719 9.15625 17.15625 L 9.621094 16.503906 C 9.652344 16.460938 9.703125 16.429688 9.757812 16.425781 C 9.8125 16.421875 9.867188 16.4375 9.90625 16.476562 L 10.496094 17.019531 C 10.589844 17.109375 10.746094 17.078125 10.796875 16.957031 L 11.125 16.226562 C 11.144531 16.175781 11.1875 16.136719 11.242188 16.121094 C 11.292969 16.105469 11.351562 16.113281 11.398438 16.140625 L 12.082031 16.554688 C 12.136719 16.585938 12.199219 16.59375 12.257812 16.566406 C 12.3125 16.542969 12.355469 16.492188 12.367188 16.433594 L 12.539062 15.648438 C 12.550781 15.597656 12.585938 15.550781 12.632812 15.523438 C 12.679688 15.496094 12.738281 15.492188 12.789062 15.511719 L 13.542969 15.78125 C 13.601562 15.800781 13.667969 15.792969 13.71875 15.757812 C 13.769531 15.722656 13.796875 15.664062 13.800781 15.601562 L 13.808594 14.800781 C 13.808594 14.746094 13.835938 14.695312 13.875 14.660156 C 13.917969 14.621094 13.972656 14.605469 14.027344 14.613281 L 14.820312 14.726562 C 14.949219 14.742188 15.058594 14.628906 15.035156 14.5 L 14.882812 13.714844 C 14.871094 13.660156 14.886719 13.605469 14.917969 13.5625 C 14.953125 13.515625 15.003906 13.492188 15.058594 13.488281 L 15.859375 13.4375 C 15.921875 13.433594 15.976562 13.398438 16.007812 13.347656 C 16.039062 13.292969 16.046875 13.230469 16.023438 13.171875 L 15.714844 12.433594 C 15.695312 12.382812 15.695312 12.324219 15.71875 12.277344 C 15.746094 12.226562 15.789062 12.191406 15.84375 12.175781 L 16.613281 11.964844 C 16.675781 11.949219 16.722656 11.90625 16.746094 11.847656 C 16.765625 11.789062 16.757812 11.726562 16.722656 11.671875 L 16.273438 11.011719 C 16.242188 10.964844 16.234375 10.90625 16.246094 10.855469 C 16.261719 10.800781 16.296875 10.757812 16.34375 10.734375 L 17.058594 10.371094 C 17.113281 10.34375 17.152344 10.289062 17.164062 10.230469 C 17.171875 10.167969 17.152344 10.105469 17.105469 10.0625 L 16.535156 9.503906 C 16.492188 9.464844 16.472656 9.414062 16.476562 9.359375 C 16.480469 9.304688 16.507812 9.253906 16.550781 9.21875 L 17.175781 8.71875 C 17.226562 8.683594 17.25 8.621094 17.25 8.5625 C 17.246094 8.5 17.214844 8.445312 17.160156 8.410156 L 16.484375 7.976562 C 16.441406 7.949219 16.410156 7.898438 16.402344 7.847656 C 16.390625 7.792969 16.40625 7.738281 16.441406 7.695312 L 16.957031 7.078125 C 16.996094 7.03125 17.011719 6.96875 16.996094 6.910156 C 16.980469 6.851562 16.9375 6.800781 16.878906 6.78125 L 16.132812 6.492188 C 16.082031 6.472656 16.039062 6.429688 16.019531 6.378906 C 16.003906 6.328125 16.007812 6.269531 16.03125 6.222656 L 16.410156 5.519531 C 16.441406 5.464844 16.441406 5.398438 16.414062 5.34375 C 16.386719 5.289062 16.335938 5.25 16.277344 5.238281 L 15.484375 5.105469 C 15.429688 5.097656 15.382812 5.066406 15.355469 5.019531 C 15.324219 4.972656 15.316406 4.917969 15.332031 4.863281 L 15.5625 4.097656 C 15.582031 4.039062 15.570312 3.972656 15.53125 3.925781 C 15.492188 3.875 15.433594 3.847656 15.375 3.851562 L 14.570312 3.882812 C 14.515625 3.882812 14.464844 3.863281 14.425781 3.820312 C 14.390625 3.78125 14.371094 3.726562 14.375 3.671875 L 14.445312 2.875 C 14.453125 2.8125 14.425781 2.753906 14.378906 2.714844 C 14.332031 2.675781 14.269531 2.660156 14.210938 2.671875 L 13.433594 2.863281 C 13.378906 2.878906 13.324219 2.867188 13.277344 2.835938 C 13.234375 2.804688 13.203125 2.753906 13.195312 2.699219 L 13.105469 1.90625 C 13.097656 1.84375 13.0625 1.789062 13.007812 1.757812 C 12.953125 1.730469 12.890625 1.726562 12.835938 1.753906 L 12.109375 2.097656 C 12.0625 2.121094 12.003906 2.121094 11.953125 2.101562 C 11.902344 2.078125 11.863281 2.035156 11.847656 1.984375 L 11.597656 1.222656 C 11.578125 1.164062 11.53125 1.117188 11.472656 1.101562 C 11.414062 1.082031 11.351562 1.09375 11.300781 1.128906 L 10.660156 1.613281 C 10.617188 1.644531 10.5625 1.660156 10.507812 1.648438 C 10.453125 1.636719 10.40625 1.601562 10.378906 1.554688 L 9.984375 0.859375 C 9.953125 0.804688 9.898438 0.769531 9.835938 0.765625 C 9.777344 0.757812 9.714844 0.78125 9.675781 0.828125 Z M 9 2.25 C 12.726562 2.25 15.75 5.273438 15.75 9 C 15.75 12.726562 12.726562 15.75 9 15.75 C 5.273438 15.75 2.25 12.726562 2.25 9 C 2.25 5.273438 5.273438 2.25 9 2.25 Z M 8.574219 5.28125 L 6.671875 5.28125 L 6.671875 12 L 11.777344 12 L 11.777344 10.492188 L 8.574219 10.492188 Z M 8.574219 5.28125 "/>
</g>
</svg>
