<svg width="18" height="12" viewBox="0 0 18 12" xmlns="http://www.w3.org/2000/svg" xmlns:xlink="http://www.w3.org/1999/xlink">
    <defs>
        <path d="M8.57 4.715c-.708 0-1.285.577-1.285 1.286 0 .708.577 1.285 1.285 1.285.71 0 1.286-.577 1.286-1.285 0-.71-.577-1.286-1.286-1.286M8.57 9c-1.654 0-3-1.345-3-3 0-1.653 1.346-2.999 3-2.999 1.655 0 3 1.346 3 3s-1.345 3-3 3m8.458-3.427c-.548-.953-3.567-5.73-8.69-5.57C3.601.124.845 4.299.113 5.574a.862.862 0 0 0 0 .853C.653 7.367 3.567 12 8.592 12c.07 0 .14 0 .21-.003 4.738-.12 7.494-4.294 8.226-5.57a.862.862 0 0 0 0-.853" id="a"/>
    </defs>
    <use fill="#555770" xlink:href="#a" fill-rule="evenodd"/>
</svg>
