<svg width="11" height="10" viewBox="0 0 11 10" xmlns="http://www.w3.org/2000/svg" xmlns:xlink="http://www.w3.org/1999/xlink">
    <defs>
        <path d="M2.592 2.356c.39 0 .706-.317.706-.707V.707a.707.707 0 1 0-1.413 0v.942c0 .39.316.707.707.707zM0 9.293c0 .39.317.707.707.707H9.66c.39 0 .706-.317.706-.707V4.817H0v4.476zM9.66.943h-.707v.706a1.178 1.178 0 0 1-2.356 0V.942H3.77v.707a1.178 1.178 0 0 1-2.356 0V.942H.707A.708.708 0 0 0 0 1.65v2.12h10.366V1.65A.708.708 0 0 0 9.66.942zM7.775 2.355c.39 0 .706-.317.707-.707V.707a.707.707 0 1 0-1.414 0v.942c0 .39.317.707.707.707z" id="b4wjt43hha"/>
    </defs>
    <use fill="#8F90A6" xlink:href="#b4wjt43hha" fill-rule="evenodd"/>
</svg>
