<svg width="11.504" height="15" viewBox="0 0 11.504 15" xmlns="http://www.w3.org/2000/svg" xmlns:xlink="http://www.w3.org/1999/xlink">
    <defs>
        <path d="M10.233 1.97h-.985a.254.254 0 0 1-.254-.254v-.445C8.994.571 8.424 0 7.722 0h-3.94C3.08 0 2.51.57 2.51 1.271v.445c0 .14-.114.254-.255.254h-.985C.57 1.97 0 2.54 0 3.242v1.207c0 .14.114.254.254.254H11.25c.14 0 .254-.113.254-.254V3.242a1.27 1.27 0 0 0-1.27-1.272zm-2.256-.254c0 .14-.114.254-.255.254h-3.94a.254.254 0 0 1-.254-.254v-.445c0-.14.114-.254.254-.254h3.94c.141 0 .255.114.255.254v.445zM10.17 5.34H1.335a.254.254 0 0 0-.254.254v8.136c0 .702.57 1.271 1.271 1.271h6.801c.702 0 1.271-.569 1.271-1.271V5.593a.254.254 0 0 0-.254-.254zM3.687 13.22a.508.508 0 0 1-1.017 0V6.928a.509.509 0 0 1 1.017 0v6.292zm2.574 0a.508.508 0 0 1-1.017 0V6.928a.509.509 0 0 1 1.017 0v6.292zm2.574 0a.509.509 0 0 1-1.017 0V6.928a.509.509 0 0 1 1.017 0v6.292z" id="28b2uh6bta"/>
    </defs>
    <use fill="#E63535" xlink:href="#28b2uh6bta" fill-rule="evenodd"/>
</svg>
