<svg width="16" height="19" viewBox="0 0 16 19" xmlns="http://www.w3.org/2000/svg" xmlns:xlink="http://www.w3.org/1999/xlink">
    <defs>
        <path d="M13.125 8.508a.64.64 0 0 0-.58-.341H10V.583C10 .261 9.715 0 9.364 0H6.818c-.351 0-.636.261-.636.583v7.584H3.636a.642.642 0 0 0-.579.341.544.544 0 0 0 .1.626L7.613 13.8c.121.128.296.2.479.2a.665.665 0 0 0 .479-.2l4.454-4.666a.544.544 0 0 0 .1-.626zM.6 15h14.8a.6.6 0 0 1 .6.6v2.8a.6.6 0 0 1-.6.6H.6a.6.6 0 0 1-.6-.6v-2.8a.6.6 0 0 1 .6-.6z" id="p35lqjlsxa"/>
    </defs>
    <use fill="#2F9CB1" xlink:href="#p35lqjlsxa" transform="matrix(1 0 0 -1 0 19)" fill-rule="evenodd"/>
</svg>
