<svg width="12.271" height="16" viewBox="0 0 12.271 16" xmlns="http://www.w3.org/2000/svg" xmlns:xlink="http://www.w3.org/1999/xlink">
    <defs>
        <path d="M10.915 2.102h-1.05a.27.27 0 0 1-.272-.271v-.475C9.593.608 8.985 0 8.237 0H4.034c-.748 0-1.356.608-1.356 1.356v.475c0 .15-.122.27-.271.27H1.356C.607 2.102 0 2.71 0 3.459v1.288c0 .15.121.27.271.27H12a.27.27 0 0 0 .271-.27V3.458c0-.75-.606-1.356-1.356-1.356zM8.508 1.83a.27.27 0 0 1-.27.27H4.033a.271.271 0 0 1-.271-.27v-.475c0-.15.121-.271.27-.271h4.204c.15 0 .271.121.271.27v.476zm2.34 3.864H1.424a.27.27 0 0 0-.27.271v8.678c0 .75.606 1.356 1.355 1.356h7.254c.75 0 1.356-.607 1.356-1.356V5.966a.27.27 0 0 0-.271-.271zm-6.916 8.407a.542.542 0 0 1-1.084 0V7.39a.543.543 0 0 1 1.084 0v6.712zm2.746 0a.542.542 0 0 1-1.085 0V7.39a.543.543 0 0 1 1.085 0v6.712zm2.746 0a.543.543 0 0 1-1.085 0V7.39a.543.543 0 0 1 1.085 0v6.712z" id="0cnpt2hjqa"/>
    </defs>
    <use fill="#555770" xlink:href="#0cnpt2hjqa" fill-rule="evenodd"/>
</svg>
