<?xml version="1.0" encoding="UTF-8"?>
<svg xmlns="http://www.w3.org/2000/svg" xmlns:xlink="http://www.w3.org/1999/xlink" width="22px" height="18px" viewBox="0 0 22 18" version="1.1">
<g id="surface1">
<path style=" stroke:none;fill-rule:nonzero;fill:rgb(85.882353%,27.843137%,23.529412%);fill-opacity:1;" d="M 19.820312 16 L 21.800781 16 L 21.800781 18 L 0 18 L 0 16 L 1.980469 16 L 1.980469 1 C 1.980469 0.449219 2.425781 0 2.972656 0 L 12.882812 0 C 13.429688 0 13.875 0.449219 13.875 1 L 13.875 16 L 15.855469 16 L 15.855469 6 L 18.828125 6 C 19.375 6 19.820312 6.449219 19.820312 7 Z M 5.945312 8 L 5.945312 10 L 9.910156 10 L 9.910156 8 Z M 5.945312 4 L 5.945312 6 L 9.910156 6 L 9.910156 4 Z M 5.945312 4 "/>
</g>
</svg>
