<svg width="21" height="21" viewBox="0 0 21 21" xmlns="http://www.w3.org/2000/svg">
    <path d="M10.5 0C16.299 0 21 4.701 21 10.5S16.299 21 10.5 21 0 16.299 0 10.5 4.701 0 10.5 0zm3.57 5.5H6.48v2.295h4.14L8.745 9.82v1.875H9.99c1.07 0 1.605.34 1.605 1.02 0 .35-.15.62-.45.81-.3.19-.705.285-1.215.285-.5 0-1.007-.075-1.522-.225a4.841 4.841 0 0 1-1.388-.645l-1.08 2.235c.53.33 1.157.585 1.882.765.726.18 1.458.27 2.198.27 1.01 0 1.858-.163 2.543-.488.684-.324 1.195-.752 1.53-1.282.335-.53.502-1.105.502-1.725 0-.76-.233-1.408-.697-1.942-.465-.535-1.133-.893-2.003-1.073l2.175-2.34V5.5z" fill="#555770" fill-rule="evenodd"/>
</svg>
