<svg width="21" height="21" viewBox="0 0 21 21" xmlns="http://www.w3.org/2000/svg">
    <path d="M10.5 0C16.299 0 21 4.701 21 10.5S16.299 21 10.5 21 0 16.299 0 10.5 4.701 0 10.5 0zm-.15 5c-1.01 0-1.885.195-2.625.585-.74.39-1.315.925-1.725 1.605l2.205 1.23A2.154 2.154 0 0 1 10.08 7.4c.44 0 .775.095 1.005.285.23.19.345.455.345.795 0 .26-.065.518-.195.772-.13.255-.385.563-.765.923L6.54 13.85v1.86h8.175v-2.355h-4.05l1.98-1.83c.7-.64 1.172-1.213 1.418-1.718a3.647 3.647 0 0 0 .367-1.612c0-.64-.173-1.203-.517-1.688-.346-.484-.826-.857-1.44-1.117C11.858 5.13 11.15 5 10.35 5z" fill="#555770" fill-rule="evenodd"/>
</svg>
