<svg width="27" height="30" viewBox="0 0 27 30" xmlns="http://www.w3.org/2000/svg">
    <g fill="#DB473C" fill-rule="nonzero">
        <path d="M13.184 0C7.912 0 3.516 4.246 3.516 9.668c0 2.063.62 3.902 1.809 5.625l7.119 11.109a.879.879 0 0 0 1.48 0l7.15-11.146a9.625 9.625 0 0 0 1.778-5.588c0-5.33-4.337-9.668-9.668-9.668zm0 14.063a4.4 4.4 0 0 1-4.395-4.395 4.4 4.4 0 0 1 4.395-4.395 4.4 4.4 0 0 1 4.394 4.395 4.4 4.4 0 0 1-4.394 4.395z"/>
        <path d="m20.055 20.197-4.426 6.92c-1.146 1.785-3.752 1.78-4.892 0L6.305 20.2C2.405 21.1 0 22.752 0 24.727 0 28.152 6.793 30 13.184 30c6.39 0 13.183-1.848 13.183-5.273 0-1.976-2.407-3.629-6.312-4.53z"/>
    </g>
</svg>
