<svg width="17" height="20" viewBox="0 0 17 20" xmlns="http://www.w3.org/2000/svg">
    <path d="M14.16 0H2.84A2.843 2.843 0 0 0 0 2.84v13.85a2.848 2.848 0 0 0 2.84 2.841h11.32a2.848 2.848 0 0 0 2.84-2.84V2.84C17 1.27 15.722 0 14.16 0zM8.456 16.552h-3.88a.879.879 0 1 1 0-1.758h3.88a.878.878 0 1 1 0 1.758zm3.967-4.199H4.576a.879.879 0 1 1 0-1.757h7.847a.879.879 0 1 1 0 1.757zm1.166-7.913L10.77 7.582a.881.881 0 0 1-1.127.154L6.908 5.992l-2.21 2.306a.878.878 0 1 1-1.269-1.215l2.71-2.828a.88.88 0 0 1 1.106-.133L9.96 5.853l2.321-2.587A.878.878 0 1 1 13.59 4.44z" fill="#555770" fill-rule="nonzero"/>
</svg>
