<svg width="24" height="24" viewBox="0 0 24 24" xmlns="http://www.w3.org/2000/svg">
    <path d="m20.6 18.642-3.71-3.71a7.408 7.408 0 0 0 1.341-4.316 7.48 7.48 0 0 0-.6-2.959 7.612 7.612 0 0 0-1.623-2.434A7.613 7.613 0 0 0 13.574 3.6c-.941-.4-1.927-.6-2.958-.6-1.032 0-2.018.2-2.959.6-.941.4-1.752.942-2.434 1.623A7.613 7.613 0 0 0 3.6 7.657c-.4.941-.6 1.927-.6 2.959 0 1.03.2 2.017.6 2.958.4.941.941 1.752 1.623 2.434a7.618 7.618 0 0 0 2.434 1.623c.941.4 1.927.6 2.959.6a7.409 7.409 0 0 0 4.316-1.342l3.71 3.7c.26.274.584.411.974.411.382 0 .708-.135.979-.406.27-.27.405-.596.405-.979 0-.382-.133-.706-.4-.973zm-6.56-4.603c-.949.948-2.09 1.423-3.424 1.423-1.335 0-2.476-.475-3.424-1.423-.948-.948-1.423-2.09-1.423-3.424s.475-2.475 1.423-3.423c.948-.949 2.09-1.423 3.424-1.423s2.475.475 3.423 1.423c.949.948 1.423 2.09 1.423 3.423 0 1.335-.474 2.476-1.423 3.424z" fill="#8F90A6" fill-rule="evenodd"/>
</svg>
