<svg width="19" height="22" viewBox="0 0 19 22" xmlns="http://www.w3.org/2000/svg">
    <g fill="#C7C9D9" fill-rule="nonzero">
        <path d="M17.743 1.462h-2.865a.262.262 0 0 0-.263.263v1.732a.93.93 0 0 1-.928.928H5.313a.93.93 0 0 1-.928-.928V1.725a.262.262 0 0 0-.263-.263H1.257C.563 1.462 0 2.024 0 2.718v17.948c0 .694.563 1.257 1.257 1.257h16.486c.694 0 1.257-.563 1.257-1.257V2.718c0-.694-.563-1.256-1.257-1.256zM4.385 16.808h-.731a.733.733 0 0 1-.73-.731c0-.402.328-.73.73-.73h.73c.403 0 .731.328.731.73 0 .402-.328.73-.73.73zm0-3.654h-.731a.733.733 0 0 1-.73-.73c0-.403.328-.732.73-.732h.73c.403 0 .731.33.731.731 0 .402-.328.73-.73.73zm0-3.654h-.731a.733.733 0 0 1-.73-.73c0-.403.328-.732.73-.732h.73c.403 0 .731.33.731.731 0 .402-.328.731-.73.731zm10.961 7.308H8.038a.733.733 0 0 1-.73-.731c0-.402.329-.73.73-.73h7.308c.402 0 .73.328.73.73 0 .402-.328.73-.73.73zm0-3.654H8.038a.733.733 0 0 1-.73-.73c0-.403.329-.732.73-.732h7.308c.402 0 .73.33.73.731 0 .402-.328.73-.73.73zm0-3.654H8.038a.733.733 0 0 1-.73-.73c0-.403.329-.732.73-.732h7.308c.402 0 .73.33.73.731 0 .402-.328.731-.73.731z"/>
        <path d="M12.74 2.923H6.26a.413.413 0 0 1-.414-.413V.515c0-.285.23-.515.515-.515h6.278c.284 0 .515.23.515.515V2.51a.413.413 0 0 1-.413.413z"/>
    </g>
</svg>
