<svg width="23" height="21" viewBox="0 0 23 21" xmlns="http://www.w3.org/2000/svg">
    <path d="M0 9.692C0 4.218 5.194 0 11.308 0c6.113 0 11.307 4.218 11.307 9.692s-5.194 9.693-11.307 9.693c-1.21 0-2.378-.163-3.475-.466l-4.258 2.004a.808.808 0 0 1-1.11-.986l1.067-3.204C1.38 14.986 0 12.493 0 9.693zm7.27-4.038a.808.808 0 1 0 0 1.615h3.23a.808.808 0 1 0 0-1.615H7.27zm-.808 4.038c0-.446.361-.807.807-.807h8.077a.808.808 0 1 1 0 1.615H7.27a.808.808 0 0 1-.807-.808zm.807 2.423a.808.808 0 1 0 0 1.616h8.077a.808.808 0 1 0 0-1.616H7.27z" fill="#FFF" fill-rule="evenodd"/>
</svg>
