<svg width="18" height="22" viewBox="0 0 18 22" xmlns="http://www.w3.org/2000/svg">
    <path d="M17.255 10.94c-1.282 1.961-3.641 5.623-5.028 8.118-1.66 2.986-5.003 2.947-5.156 2.941H5.107A5.113 5.113 0 0 1 0 16.892V5.107a1.179 1.179 0 0 1 2.357 0v6.285a.393.393 0 0 0 .786 0V2.357a1.179 1.179 0 0 1 2.357 0v9.035a.393.393 0 0 0 .786 0V1.18a1.179 1.179 0 0 1 2.357 0v10.213a.393.393 0 0 0 .785 0V3.536a1.179 1.179 0 0 1 2.357 0v8.872l-.727.728a.393.393 0 0 0 .555.555l3.491-3.491a1.742 1.742 0 0 1 1.71-.443.784.784 0 0 1 .443 1.184h-.002z" fill="#555770" fill-rule="nonzero"/>
</svg>
