<svg width="12" height="13" viewBox="0 0 12 13" xmlns="http://www.w3.org/2000/svg">
    <g fill="#8F90A6" fill-rule="nonzero">
        <path d="M6.857.5a.857.857 0 1 0 0 1.714h2.217L3.68 7.608A.857.857 0 1 0 4.892 8.82l5.394-5.394v2.217a.857.857 0 1 0 1.714 0V1.357A.857.857 0 0 0 11.143.5H6.857z"/>
        <path d="M1.714 2.214C.768 2.214 0 2.982 0 3.93v6.857c0 .947.768 1.714 1.714 1.714h6.857c.947 0 1.715-.767 1.715-1.714V8.214a.857.857 0 1 0-1.715 0v2.572H1.714V3.929h2.572a.857.857 0 0 0 0-1.715H1.714z"/>
    </g>
</svg>
