<svg width="22" height="20" viewBox="0 0 22 20" xmlns="http://www.w3.org/2000/svg">
    <g fill-rule="nonzero" fill="none">
        <path d="M0 1.433C0 .645.628 0 1.395 0h15.34c.768 0 1.395.645 1.395 1.433s-.627 1.433-1.394 1.433H1.395C.628 2.866 0 2.221 0 1.433zM1.395 8.6h15.34c.768 0 1.395-.646 1.395-1.434 0-.788-.627-1.433-1.394-1.433H1.395C.628 5.733 0 6.378 0 7.166S.628 8.6 1.395 8.6zM9.226 11.466H1.38c-.719 0-1.307.645-1.307 1.433s.588 1.433 1.307 1.433h7.847c.72 0 1.308-.645 1.308-1.433s-.588-1.433-1.308-1.433z" fill="#1C1C28"/>
        <path d="M17.7 10.463c2.382 0 4.3 1.918 4.3 4.3 0 2.38-1.918 4.299-4.3 4.299a4.291 4.291 0 0 1-4.3-4.3c0-2.381 1.919-4.3 4.3-4.3zm0 1.934c-.509 0-.91.407-.91.924v.554h-.545c-.51 0-.91.406-.91.923s.4.923.91.923h.546v.554c0 .517.4.924.91.924.509 0 .909-.407.909-.924v-.554h.546c.509 0 .91-.406.91-.923s-.401-.923-.91-.923h-.546v-.554c0-.517-.4-.924-.91-.924z" fill="#05A660"/>
    </g>
</svg>
