<svg width="22" height="20" viewBox="0 0 22 20" xmlns="http://www.w3.org/2000/svg">
    <g fill-rule="nonzero" fill="none">
        <path d="M0 1.435C0 .645.63 0 1.398 0h15.378c.769 0 1.398.646 1.398 1.435s-.63 1.435-1.398 1.435H1.398C.629 2.87 0 2.224 0 1.435zM1.398 8.609h15.378c.769 0 1.398-.646 1.398-1.435 0-.79-.63-1.435-1.398-1.435H1.398C.629 5.74 0 6.385 0 7.174s.63 1.435 1.398 1.435zM9.207 11.522H1.315c-.723 0-1.315.645-1.315 1.435 0 .789.592 1.434 1.315 1.434h7.892c.723 0 1.315-.645 1.315-1.434 0-.79-.592-1.435-1.315-1.435z" fill="#1C1C28"/>
        <path d="M17.696 10.522A4.296 4.296 0 0 1 22 14.826a4.296 4.296 0 0 1-4.304 4.304 4.296 4.296 0 0 1-4.305-4.304 4.296 4.296 0 0 1 4.305-4.304zm1.324 3.476h-2.649a.82.82 0 0 0-.828.828.82.82 0 0 0 .828.828h2.65a.82.82 0 0 0 .827-.828.82.82 0 0 0-.828-.828z" fill="#FDAC42"/>
    </g>
</svg>
